<svg version="1.1" viewBox="0.0 0.0 466.41207349081367 603.8372703412074" fill="none" stroke="none" stroke-linecap="square" stroke-miterlimit="10" xmlns:xlink="http://www.w3.org/1999/xlink" xmlns="http://www.w3.org/2000/svg"><clipPath id="p.0"><path d="m0 0l466.41208 0l0 603.8373l-466.41208 0l0 -603.8373z" clip-rule="nonzero"/></clipPath><g clip-path="url(#p.0)"><path fill="#000000" fill-opacity="0.0" d="m0 0l466.41208 0l0 603.8373l-466.41208 0z" fill-rule="evenodd"/><path fill="#ffffff" d="m-0.007874016 -0.18372704l466.4252 0l0 603.8425l-466.4252 0z" fill-rule="evenodd"/><path stroke="#ffffff" stroke-width="1.0" stroke-linejoin="round" stroke-linecap="butt" d="m-0.007874016 -0.18372704l466.4252 0l0 603.8425l-466.4252 0z" fill-rule="evenodd"/><path fill="#000041" d="m20.155272 163.79256l0 0c-0.19084167 -81.447556 64.17509 -148.40657 145.56668 -151.43106c81.3916 -3.0245018 150.54953 58.97278 156.40405 140.20987l-53.548584 3.8590698c-3.7754517 -52.388176 -48.37401 -92.36898 -100.86182 -90.41854c-52.487816 1.9504395 -93.99612 45.130966 -93.87305 97.65487z" fill-rule="evenodd"/><path fill="#000041" d="m269.05774 230.79527l53.448822 0l0 60.503952l-53.448822 0z" fill-rule="evenodd"/><path fill="#000041" d="m20.154856 163.48032l53.448822 0l0 127.55905l-53.448822 0z" fill-rule="evenodd"/><path fill="#000041" d="m20.155272 290.7639l0 0c-0.12667274 54.061584 28.624014 104.07626 75.40444 131.17352c46.780434 27.09726 104.469826 27.152466 151.30203 0.14474487c46.8322 -27.00769 75.67854 -76.967285 75.65532 -131.02899l-53.460663 0.022949219c0.015014648 34.944427 -18.630692 67.237305 -48.902084 84.69455c-30.271393 17.457245 -67.56067 17.42154 -97.7986 -0.093566895c-30.237938 -17.515137 -48.821808 -49.843628 -48.73993 -84.787964z" fill-rule="evenodd"/><path fill="#ee8432" d="m144.60147 315.01566l0 0c-0.12667847 -54.061584 28.624008 -104.07626 75.404434 -131.17352c46.78044 -27.097275 104.46983 -27.152466 151.30202 -0.14476013c46.832214 27.007706 75.67856 76.96727 75.655304 131.029l-53.460632 -0.022979736c0.015014648 -34.944427 -18.630676 -67.23729 -48.9021 -84.69452c-30.271393 -17.457245 -67.56067 -17.42157 -97.798584 0.093566895c-30.237946 17.515121 -48.821808 49.843628 -48.73993 84.78793z" fill-rule="evenodd"/><path fill="#ee8432" d="m393.50394 314.39108l53.448822 0l0 128.12598l-53.448822 0z" fill-rule="evenodd"/><path fill="#ee8432" d="m144.60104 314.7034l53.448822 0l0 57.700806l-53.448822 0z" fill-rule="evenodd"/><path fill="#ee8432" d="m145.02893 453.70746l0 0c6.111969 81.064575 75.23636 142.78223 156.47281 139.7066c81.23648 -3.0755615 145.49643 -69.84314 145.46149 -151.13782l-53.460632 0.022979736c0.02255249 52.54724 -41.513794 95.70444 -94.02341 97.692474c-52.50963 1.9879761 -97.19025 -37.90506 -101.1409 -90.30359z" fill-rule="evenodd"/><path fill="#ee8432" d="m198.04199 366.979l0 7.3228455l0 0c0 4.044281 -11.96492 7.322815 -26.724411 7.322815c-14.759476 0 -26.724411 -3.278534 -26.724411 -7.322815l0 -7.3228455z" fill-rule="evenodd"/><path fill="#000041" d="m322.50656 238.33858l0 -7.32283l0 0c0 -4.0442963 -11.964935 -7.32283 -26.724396 -7.32283c-14.759491 0 -26.724426 3.278534 -26.724426 7.32283l0 7.32283z" fill-rule="evenodd"/><path fill="#000041" d="m268.6404 158.43045l0 0c0 -2.9919128 11.971985 -5.417328 26.740173 -5.417328c14.768188 0 26.740143 2.425415 26.740143 5.417328l0 0c-15.36499 -2.6841736 -38.115295 -2.6841736 -53.480316 0z" fill-rule="evenodd"/><path fill="#000041" d="m268.5556 156.37556l53.574463 -3.8480072l0.11401367 1.7451172l-53.59723 3.4989777z" fill-rule="evenodd"/><path fill="#000041" d="m268.6378 156.03674l0 2.4881897l1.5747986 -2.4881897z" fill-rule="evenodd"/><path fill="#000041" d="m314.61942 154.32703l7.6246643 -0.17216492l0 0.8608856l-7.6246643 0z" fill-rule="evenodd"/><path fill="#000041" d="m322.24408 154.92126l0 3.5590515l-9.88974 -3.5590515z" fill-rule="evenodd"/><path fill="#ee8432" d="m198.38583 448.11285l0 0c0 2.9049377 -11.936737 5.259857 -26.661423 5.259857c-14.724701 0 -26.661423 -2.3549194 -26.661423 -5.259857l0 0c15.319763 2.6061401 38.003082 2.6061401 53.322845 0z" fill-rule="evenodd"/><path fill="#ee8432" d="m198.3394 450.02878l-53.285736 3.8294983l-0.11402893 -1.7453003l53.308533 -3.4804382z" fill-rule="evenodd"/><path fill="#ee8432" d="m198.38583 452.7743l0 -4.661438l-1.5748138 4.661438z" fill-rule="evenodd"/><path fill="#ee8432" d="m152.5643 452.0588l-7.6246643 0.17214966l0 -0.86087036l7.6246643 0z" fill-rule="evenodd"/><path fill="#ee8432" d="m144.93964 451.46457l0 -3.5590515l9.889755 3.5590515z" fill-rule="evenodd"/><path fill="#ffffff" d="m75.57624 172.79906l0 0c-1.5655365 -0.12176514 -2.362259 -6.009033 -1.7795334 -13.149597c0.5827255 -7.140564 2.324234 -12.830429 3.8897629 -12.708664l0 0c-1.8841934 7.5653687 -2.74366 18.097076 -2.1102295 25.858261z" fill-rule="evenodd"/></g></svg>